<svg xmlns="http://www.w3.org/2000/svg" version="1.1" xmlns:xlink="http://www.w3.org/1999/xlink" xmlns:svgjs="http://svgjs.dev/svgjs" width="100%" height="100%" viewBox="0 0 1000 600"><rect width="1000" height="600" x="0" y="0" fill="#1f2937"/><g><rect width="333.3333333333333" height="333.3333333333333" rx="13.333333333333334" ry="13.333333333333334" y="242.660715359129" fill="#1c3b8b" transform="matrix(0.5670515368997897,0,0,0.5670515368997897,0,67.89025883049364)" x="220.43846130371094"/><path d="M378.5205206495141 348.0151424604136L378.5205206495141 484.3273825080152L351.3235358419376 484.3273825080152L351.3235358419376 447.48945341416436L255.71750500305004 447.48945341416436L255.71750500305004 484.3273825080152L228.52052019547355 484.3273825080152L228.52052019547355 409.3125042805531Q228.52052019547355 392.88719179282646 234.1741603633505 379.08040738285325Q239.82780053122747 365.27362297288005 249.85557282898816 355.3351186777701Q259.9131011276324 345.39661438266006 273.6008615340713 339.86199821831735Q287.3183779413938 334.3273820539747 303.5353984229356 334.3273820539747L303.5353984229356 334.3273820539747L364.83276024307514 334.3273820539747Q367.6595803270136 334.3273820539747 370.1590844012329 335.36884208489937Q372.6585884754522 336.41030211582404 374.56297253200023 338.28493017148855Q376.4376005876647 340.15955822715296 377.4790606185894 342.68881830225587Q378.5205206495141 345.1883223764751 378.5205206495141 348.0151424604136L378.5205206495141 348.0151424604136ZM255.71750500305004 409.3125042805531L255.71750500305004 420.2924686065879L351.3235358419376 420.2924686065879L351.3235358419376 361.52436686155113L303.5353984229356 361.52436686155113Q302.2558903849424 361.52436686155113 298.2388302656614 361.8814388721539Q294.22177014638044 362.23851088275666 288.9252019891062 363.69655492605125Q283.6583898327156 365.1843549702294 277.7964576586537 368.21946706035277Q271.9345254845918 371.2545791504762 267.02478533880395 376.580903308634Q262.0852891921325 381.9072274667917 258.90139709759126 389.91159170447014Q255.71750500305004 397.91595594214857 255.71750500305004 409.3125042805531L255.71750500305004 409.3125042805531ZM545.6897336133704 334.3273820539747L545.6897336133704 361.52436686155113L485.7611478338747 361.52436686155113L485.7611478338747 484.3273825080152L458.5641630262983 484.3273825080152L458.5641630262983 361.52436686155113L398.5165532432684 361.52436686155113L398.5165532432684 334.3273820539747L545.6897336133704 334.3273820539747Z " fill="#ffffff" transform="matrix(0.5670515368997897,0,0,0.5670515368997897,0,67.89025883049364)"/><path d="M776.9516262809144 357.24212957178474L776.9516262809144 484.32739013740974L751.5956061636952 484.32739013740974L751.5956061636952 449.9830215322485L662.4611503249366 449.9830215322485L662.4611503249366 484.32739013740974L637.1051302077174 484.32739013740974L637.1051302077174 414.3902711926508Q637.1051302077174 399.07678858356434 642.376075308671 386.2045858107091Q647.6470204096247 373.33238303785384 656.9960125097373 364.0666163867037Q666.3727464261706 354.8008497355536 679.1339819337427 349.6408718998831Q691.9229592576355 344.4808940642127 707.0422491524763 344.4808940642127L707.0422491524763 344.4808940642127L764.1903907733424 344.4808940642127Q766.8258633238191 344.4808940642127 769.1561758947671 345.451857635441Q771.4864884657151 346.4228212066693 773.2619647102468 348.17055563488026Q775.0096991384578 349.9182900630912 775.980662709686 352.27634445035994Q776.9516262809144 354.6066570213079 776.9516262809144 357.24212957178474L776.9516262809144 357.24212957178474ZM662.4611503249366 414.3902711926508L662.4611503249366 424.62700141502927L751.5956061636952 424.62700141502927L751.5956061636952 369.8369141814319L707.0422491524763 369.8369141814319Q705.8493510506814 369.8369141814319 702.1042058473723 370.16981597728164Q698.3590606440631 370.50271777313134 693.4210173389592 371.86206677285094Q688.510715850176 373.2491575888914 683.0455780349766 376.0788228536139Q677.5804402197773 378.9084881183364 673.003040526844 383.8742732397612Q668.3978990175897 388.8400583611859 665.4295246712632 396.3026069514835Q662.4611503249366 403.76515554178104 662.4611503249366 414.3902711926508L662.4611503249366 414.3902711926508ZM918.3794058843976 378.9084881183364L918.3794058843976 471.5384128135169Q918.3794058843976 474.28485262927694 917.4084423131692 476.6151652002249Q916.4374787419408 478.97321958749365 914.7174861300507 480.665470383063Q913.0252353344814 482.3854629949531 910.7226645798543 483.3564265661814Q908.4200938252271 484.32739013740974 905.7846212747503 484.32739013740974L905.7846212747503 484.32739013740974L848.4422869396386 484.32739013740974Q843.7816617977427 484.32739013740974 838.4552330641475 483.2454593008982Q833.1288043305522 482.19127028070744 827.9688264948817 479.80547407711794Q822.8088486592112 477.39193605720754 817.9817726193905 473.7577581191816Q813.1546965795699 470.09583836483483 809.5482604578647 464.8803768965228Q805.9140825198388 459.66491542821075 803.7224790304949 452.812686796971Q801.530875541151 445.988199982052 801.530875541151 437.4159787389221L801.530875541151 437.4159787389221L801.530875541151 378.9084881183364L826.8868956583701 378.9084881183364L826.8868956583701 437.4159787389221Q826.8868956583701 442.3817638603469 828.6068882702604 446.3488435942225Q830.2991390658296 450.2881815117774 833.2397715958354 453.11784677649985Q836.1526623095203 455.94751204122235 840.119742043396 457.44557012254603Q844.0590799609507 458.97137002019053 848.6364796538842 458.97137002019053L848.6364796538842 458.97137002019053L893.0233857671783 458.97137002019053L893.0233857671783 378.9084881183364L918.3794058843976 378.9084881183364ZM1044.105317450303 448.73463979781206L1044.105317450303 448.73463979781206Q1044.105317450303 455.25396663320214 1042.4408084710544 460.4694281015142Q1040.7762994918057 465.71263138614705 1038.0576014923665 469.6519693037019Q1035.3111616766064 473.5913072212567 1031.7047255549014 476.3654888533376Q1028.0982894331962 479.16741230173926 1024.1589515156413 480.91514672995027Q1020.1918717817657 482.6628811581612 1016.1415665989276 483.4951356477855Q1012.1190032324103 484.32739013740974 1008.4848252943843 484.32739013740974L1008.4848252943843 484.32739013740974L939.8238299003826 484.32739013740974L939.8238299003826 458.97137002019053L1008.2906325801387 458.97137002019053Q1013.47835223213 458.97137002019053 1016.1138247826068 456.33589746971364Q1018.7492973330836 453.70042491923687 1018.7492973330836 448.73463979781206L1018.7492973330836 448.73463979781206Q1018.2499446393091 438.5811350243961 1008.4848252943843 438.5811350243961L1008.4848252943843 438.5811350243961L969.2024133841192 438.5811350243961Q960.7966430389141 438.5811350243961 954.9431197952235 435.66824431071115Q949.0895965515328 432.72761178070544 945.4554186135069 428.3444048020176Q941.7934988591601 423.9611978233298 940.1844735125533 418.88444543662183Q938.5754481659462 413.80769304991384 938.5754481659462 409.42448607122606L938.5754481659462 409.42448607122606Q938.5754481659462 400.9354902770586 941.5993061449144 395.13745066600956Q944.6231641238826 389.33941105496046 949.200563816816 385.7329749332553Q953.7779635097495 382.1265388115502 959.1598758759865 380.5175134649433Q964.5140464259025 378.9084881183364 969.2024133841192 378.9084881183364L969.2024133841192 378.9084881183364L1031.5105328406557 378.9084881183364L1031.5105328406557 404.26450823555564L969.3966060983648 404.26450823555564Q967.4269371395874 404.26450823555564 966.3172644867551 404.68063548036776Q965.2075918339226 405.1245045415007 964.6527555075065 405.8735335821625Q964.1256609974112 406.59482080650355 964.014693732128 407.42707529612784Q963.9314682831655 408.2593297857521 963.9314682831655 409.0361006427347L963.9314682831655 409.0361006427347Q964.014693732128 410.58964235670004 964.5140464259025 411.4773804789659Q964.9856573033562 412.337376784911 965.734686344018 412.7535040297231Q966.455973568359 413.1418894582144 967.3991953232667 413.1696312745352Q968.3146752618534 413.2251149071769 969.2024133841192 413.2251149071769L969.2024133841192 413.2251149071769L1008.4848252943843 413.2251149071769Q1018.2499446393091 413.2251149071769 1025.074431454228 416.7483255799196Q1031.898918269147 420.2437944363415 1036.087932533589 425.57022316993675Q1040.304688614352 430.86891008721125 1042.191132124167 437.1108187593932Q1044.105317450303 443.3527274315752 1044.105317450303 448.73463979781206ZM1155.9603208558037 378.9084881183364L1155.9603208558037 404.26450823555564L1111.684382007793 404.26450823555564L1111.684382007793 484.32739013740974L1086.023201911045 484.32739013740974L1086.023201911045 404.26450823555564L1053.0659241219241 404.26450823555564L1053.0659241219241 378.9084881183364L1086.023201911045 378.9084881183364L1086.023201911045 344.4808940642127L1111.684382007793 344.4808940642127L1111.684382007793 378.9084881183364L1155.9603208558037 378.9084881183364ZM1285.6810539719056 413.80769304991384L1285.6810539719056 413.80769304991384Q1285.6810539719056 419.0786381508675 1283.8223522784115 425.18183774144546Q1281.9636505849173 431.25729551570254 1277.8301199531168 436.50049880033544Q1273.6688475049953 441.71596026864745 1267.0108115880014 445.21142912506934Q1260.3250338546866 448.73463979781206 1250.7541072240074 448.73463979781206L1250.7541072240074 448.73463979781206L1205.0078521109936 448.73463979781206L1205.0078521109936 424.62700141502927L1250.7541072240074 424.62700141502927Q1255.9418268759987 424.62700141502927 1258.7714921407212 421.46443435445707Q1261.573415589123 418.30186729388487 1261.573415589123 413.61350033566816L1261.573415589123 413.61350033566816Q1261.573415589123 408.6477152142434 1258.4108485285508 405.8180499495209Q1255.2482814679786 402.9883846847984 1250.7541072240074 402.9883846847984L1250.7541072240074 402.9883846847984L1205.0078521109936 402.9883846847984Q1199.8478742753232 402.9883846847984 1197.018209010601 406.1509517453706Q1194.1885437458782 409.3135188059428 1194.1885437458782 414.0018857641595L1194.1885437458782 414.0018857641595L1194.1885437458782 449.40044338951145Q1194.1885437458782 454.4771957762195 1197.3511108064506 457.306861040942Q1200.5414196833435 460.1365263056645 1205.2020448252392 460.1365263056645L1205.2020448252392 460.1365263056645L1250.7541072240074 460.1365263056645L1250.7541072240074 484.32739013740974L1205.0078521109936 484.32739013740974Q1199.7646488263608 484.32739013740974 1193.661449235783 482.46868844391554Q1187.558249645205 480.60998675042134 1182.342788176893 476.4764561186209Q1177.127326708581 472.3429254868203 1173.6041160358382 465.6571477535054Q1170.1086471794165 458.97137002019053 1170.1086471794165 449.40044338951145L1170.1086471794165 449.40044338951145L1170.1086471794165 413.80769304991384Q1170.1086471794165 408.53674794896017 1171.9673488729104 402.46129017470304Q1173.7983087500838 396.35809058412514 1177.9595811982051 391.14262911581307Q1182.0931118300057 385.927167647501 1188.7788895633207 382.4039569747583Q1195.4646672966355 378.9084881183364 1205.0078521109936 378.9084881183364L1205.0078521109936 378.9084881183364L1250.7541072240074 378.9084881183364Q1256.0250523249613 378.9084881183364 1262.128251915539 380.73944799550975Q1268.2314515061169 382.59814968900395 1273.446912974429 386.7594221371253Q1278.662374442741 390.8929527689258 1282.157843299163 397.5787305022407Q1285.6810539719056 404.26450823555564 1285.6810539719056 413.80769304991384ZM1404.8598968861004 458.97137002019053L1404.8598968861004 484.32739013740974L1336.0879342268152 484.32739013740974Q1330.8447309421824 484.32739013740974 1324.6028222700004 482.46868844391554Q1318.3609135978184 480.60998675042134 1313.034484864223 476.3654888533376Q1307.7080561306277 472.14873277257465 1304.1571036415642 465.35198777397653Q1300.6061511525006 458.5829845916992 1300.6061511525006 448.73463979781206L1300.6061511525006 448.73463979781206L1300.6061511525006 414.3902711926508Q1300.6061511525006 410.78383507094566 1301.4384056421252 406.7890135207492Q1302.2706601317493 402.79419197055273 1304.0183945599604 398.8548540529979Q1305.7661289881712 394.88777431912223 1308.540310620252 391.2813381974171Q1311.314492252333 387.67490207571194 1315.2815719862085 384.9562040762727Q1319.2209099037634 382.2097642605126 1324.4086295557547 380.54525528126413Q1329.568607391425 378.9084881183364 1336.0879342268152 378.9084881183364L1336.0879342268152 378.9084881183364L1404.8598968861004 378.9084881183364L1404.8598968861004 404.26450823555564L1336.0879342268152 404.26450823555564Q1331.1221491053905 404.26450823555564 1328.5421601875553 406.7890135207492Q1325.96217126972 409.3135188059428 1325.96217126972 414.5844639068965L1325.96217126972 414.5844639068965L1325.96217126972 448.73463979781206Q1325.96217126972 453.70042491923687 1328.5976438201967 456.33589746971364Q1331.2331163706738 458.97137002019053 1336.2821269410608 458.97137002019053L1336.2821269410608 458.97137002019053L1404.8598968861004 458.97137002019053ZM1543.0696257963693 414.3902711926508L1543.0696257963693 484.32739013740974L1517.7136056791503 484.32739013740974L1517.7136056791503 414.3902711926508Q1517.7136056791503 409.42448607122606 1515.1613585776358 406.8444971533908Q1512.6368532924423 404.26450823555564 1507.5601009057343 404.26450823555564L1507.5601009057343 404.26450823555564L1461.8138457927205 404.26450823555564L1461.8138457927205 378.9084881183364L1507.5601009057343 378.9084881183364Q1511.1665370274393 378.9084881183364 1515.1613585776358 379.71300079163984Q1519.1561801278324 380.54525528126413 1523.123259861708 382.32073152579585Q1527.062597779263 384.06846595400685 1530.669033900968 386.8426475860877Q1534.275470022673 389.61682921816856 1537.0219098384332 393.5839089520442Q1539.7406078378724 397.52324686959906 1541.4051168171209 402.68322470526954Q1543.0696257963693 407.8709443572607 1543.0696257963693 414.3902711926508L1543.0696257963693 414.3902711926508ZM1451.5771155703421 334.3273892907967L1451.5771155703421 484.32739013740974L1426.2210954531229 484.32739013740974L1426.2210954531229 334.3273892907967L1451.5771155703421 334.3273892907967Z " fill="#ffffff" transform="matrix(0.5670515368997897,0,0,0.5670515368997897,0,67.89025883049364)"/></g></svg>